<?xml version="1.0" encoding="UTF-8"?>
<!DOCTYPE svg PUBLIC "-//W3C//DTD SVG 1.1//EN" "http://www.w3.org/Graphics/SVG/1.1/DTD/svg11.dtd">
<!-- Creator: CorelDRAW X8 -->
<svg xmlns="http://www.w3.org/2000/svg" xml:space="preserve" width="210mm" height="297mm" version="1.1" style="shape-rendering:geometricPrecision; text-rendering:geometricPrecision; image-rendering:optimizeQuality; fill-rule:evenodd; clip-rule:evenodd"
viewBox="0 0 21000 29700"
 xmlns:xlink="http://www.w3.org/1999/xlink">
 <defs>
  <style type="text/css">
   <![CDATA[
    .str1 {stroke:#373435;stroke-width:20}
    .str0 {stroke:#3E4095;stroke-width:7.62}
    .fil2 {fill:#FEFEFE}
    .fil3 {fill:#FFF212}
    .fil4 {fill:#ED3237}
    .fil1 {fill:#6B809B}
    .fil0 {fill:#00AFEF}
   ]]>
  </style>
 </defs>
 <g id="Capa_x0020_1">
  <metadata id="CorelCorpID_0Corel-Layer"/>
  <g id="rollinbank2">
   <polygon id="Background" class="fil0 str0" points="4957,9333 16043,9333 16043,20367 4957,20367 "/>
   <g id="Group">
    <path id="Shape" class="fil0 str0" d="M8767 9773c397,-130 677,-194 1072,-241 145,-19 426,-35 624,-37 2416,-21 4583,1611 5244,3953 376,1338 225,2783 -418,4003 -1379,2603 -4546,3638 -7197,2347 -1399,-680 -2429,-1916 -2841,-3419 -773,-2788 783,-5709 3516,-6606zm3519 1505c-455,-227 -958,-362 -1521,-410 -175,-13 -328,-24 -344,-21 -14,2 -85,8 -159,13 -733,48 -1402,265 -1984,643 -937,614 -1551,1513 -1792,2630 -79,362 -84,1180 -13,1524 281,1320 1050,2336 2201,2908 347,172 691,291 1059,365 338,66 1145,66 1495,0 1272,-249 2352,-1074 2910,-2228 974,-2013 153,-4416 -1852,-5424z"/>
    <path id="Shape_0" class="fil0 str0" d="M10333 13091c6,-98 27,-199 45,-223 19,-24 64,-42 98,-42 95,0 143,95 143,280l0 164 140 16c191,24 405,127 545,262 127,122 268,387 268,503 0,169 -117,280 -294,283 -146,0 -201,-50 -296,-265 -67,-145 -164,-256 -276,-314 -31,-16 -63,-29 -74,-29 -8,0 -10,216 -8,478l8 482 254 85c405,132 588,275 720,563 48,101 58,175 58,376 0,230 -8,267 -84,426 -154,309 -440,518 -802,585l-159 31 0 360c0,405 -26,487 -153,471 -112,-13 -138,-100 -138,-484l0 -344 -164 -32c-489,-92 -894,-505 -894,-910 0,-140 8,-156 92,-233 106,-92 230,-108 355,-45 58,32 90,88 148,244 45,121 114,246 167,307 90,100 209,180 270,180 15,0 26,-180 26,-538l0 -534 -198 -64c-556,-174 -821,-515 -770,-989 26,-265 84,-402 238,-558 153,-159 325,-246 561,-286l164 -29 10 -177zm458 3151c405,-185 429,-678 40,-876 -51,-24 -119,-56 -151,-64l-61 -18 0 503c0,386 8,505 34,505 16,0 80,-24 138,-50zm-463 -2080c0,241 -8,437 -18,437 -67,0 -305,-172 -342,-244 -58,-111 -55,-312 5,-413 45,-76 252,-214 323,-216 24,0 32,105 32,436z"/>
    <path id="Shape_1" class="fil0 str0" d="M7722 14226c-598,256 -1111,484 -1146,502 -58,32 -61,45 -53,302l8 267 1138 498c627,272 1146,494 1159,494 10,3 18,-140 18,-317l0 -318 -84 -34c-48,-19 -413,-164 -813,-320l-722 -286 802 -307 804 -309 8 -323c3,-177 -3,-323 -13,-323 -11,0 -508,214 -1106,474l0 0z"/>
    <path id="Shape_2" class="fil0 str0" d="M12101 14064l0 318 405 158c219,85 584,225 807,313 222,84 394,161 383,172 -13,10 -370,156 -796,325 -429,167 -783,307 -789,315 -8,5 -8,153 -5,325l8 318 1156 -505 1159 -503 0 -278 0 -278 -1122 -481c-614,-265 -1137,-490 -1161,-500 -40,-14 -45,15 -45,301l0 0z"/>
   </g>
  </g>
  <path class="fil1 str1" d="M12286 11278c2005,1008 2826,3411 1852,5424 -558,1154 -1638,1979 -2910,2228 -350,66 -1157,66 -1495,0 -368,-74 -712,-193 -1059,-365 -1151,-572 -1920,-1588 -2201,-2908 -71,-344 -66,-1162 13,-1524 241,-1117 855,-2016 1792,-2630 582,-378 1251,-595 1984,-643 74,-5 145,-11 159,-13 16,-3 169,8 344,21 563,48 1066,183 1521,410zm-2447 -1746c-395,47 -675,111 -1072,241 -2733,897 -4289,3818 -3516,6606 412,1503 1442,2739 2841,3419 2651,1291 5818,256 7197,-2347 643,-1220 794,-2665 418,-4003 -661,-2342 -2828,-3974 -5244,-3953 -198,2 -479,18 -624,37z"/>
  <path class="fil1 str1" d="M14429 14744l-1122 -481c-614,-265 -1137,-490 -1161,-500 -40,-14 -45,15 -45,301l0 318 405 158c219,85 584,225 807,313 222,84 394,161 383,172 -13,10 -370,156 -796,325 -429,167 -783,307 -789,315 -8,5 -8,153 -5,325l8 318 1156 -505 1159 -503 0 -278 0 -278z"/>
  <path class="fil1 str1" d="M11572 14051c0,-116 -141,-381 -268,-503 -140,-135 -354,-238 -545,-262l-140 -16 0 -164c0,-185 -48,-280 -143,-280 -34,0 -79,18 -98,42 -18,24 -39,125 -45,223l-10 177 -164 29c-236,40 -408,127 -561,286 -154,156 -212,293 -238,558 -51,474 214,815 770,989l198 64 0 534c0,358 -11,538 -26,538 -61,0 -180,-80 -270,-180 -53,-61 -122,-186 -167,-307 -58,-156 -90,-212 -148,-244 -125,-63 -249,-47 -355,45 -84,77 -92,93 -92,233 0,405 405,818 894,910l164 32 0 344c0,384 26,471 138,484 127,16 153,-66 153,-471l0 -360 159 -31c362,-67 648,-276 802,-585 76,-159 84,-196 84,-426 0,-201 -10,-275 -58,-376 -132,-288 -315,-431 -720,-563l-254 -85 -8 -482c-2,-262 0,-478 8,-478 11,0 43,13 74,29 112,58 209,169 276,314 95,215 150,265 296,265 177,-3 294,-114 294,-283zm-892 1251c32,8 100,40 151,64 389,198 365,691 -40,876 -58,26 -122,50 -138,50 -26,0 -34,-119 -34,-505l0 -503 61 18zm-352 -1140c0,241 -8,437 -18,437 -67,0 -305,-172 -342,-244 -58,-111 -55,-312 5,-413 45,-76 252,-214 323,-216 24,0 32,105 32,436z"/>
  <path class="fil2 str1" d="M8833 14398l8 -323c3,-177 -3,-323 -13,-323 -11,0 -508,214 -1106,474 -598,256 -1111,484 -1146,502 -58,32 -61,45 -53,302l8 267 1138 498c627,272 1146,494 1159,494 10,3 18,-140 18,-317l0 -318 -84 -34c-48,-19 -413,-164 -813,-320l-722 -286 802 -307 804 -309z"/>
  <path class="fil2 str1" d="M10476 12826c95,0 143,95 143,280l0 164 140 16c191,24 405,127 545,262 127,122 268,387 268,503 0,169 -117,280 -294,283 -146,0 -201,-50 -296,-265 -67,-145 -164,-256 -276,-314 -31,-16 -63,-29 -74,-29 -8,0 -10,216 -8,478l8 482 254 85c405,132 588,275 720,563 48,101 58,175 58,376 0,230 -8,267 -84,426 -154,309 -440,518 -802,585l-159 31 0 360c0,405 -26,487 -153,471 -112,-13 -138,-100 -138,-484l0 -344 -164 -32c-489,-92 -894,-505 -894,-910 0,-140 8,-156 92,-233 106,-92 230,-108 355,-45 58,32 90,88 148,244 45,121 114,246 167,307 90,100 209,180 270,180 15,0 26,-180 26,-538l0 -534 -198 -64c-556,-174 -821,-515 -770,-989 26,-265 84,-402 238,-558 153,-159 325,-246 561,-286l164 -29 10 -177c6,-98 27,-199 45,-223 19,-24 64,-42 98,-42zm-1635 1249l-8 323 -804 309 -802 307 722 286c400,156 765,301 813,320l84 34 0 318c0,177 -8,320 -18,317 -13,0 -532,-222 -1159,-494l-1138 -498 -8 -267c-8,-257 -5,-270 53,-302 35,-18 548,-246 1146,-502 598,-260 1095,-474 1106,-474 10,0 16,146 13,323zm5297 2627c974,-2013 153,-4416 -1852,-5424 -455,-227 -958,-362 -1521,-410 -175,-13 -328,-24 -344,-21 -14,2 -85,8 -159,13 -733,48 -1402,265 -1984,643 -937,614 -1551,1513 -1792,2630 -79,362 -84,1180 -13,1524 281,1320 1050,2336 2201,2908 347,172 691,291 1059,365 338,66 1145,66 1495,0 1272,-249 2352,-1074 2910,-2228zm-2037 -2638c0,-286 5,-315 45,-301 24,10 547,235 1161,500l1122 481 0 278 0 278 -1159 503 -1156 505 -8 -318c-3,-172 -3,-320 5,-325 6,-8 360,-148 789,-315 426,-169 783,-315 796,-325 11,-11 -161,-88 -383,-172 -223,-88 -588,-228 -807,-313l-405 -158 0 -318z"/>
  <path class="fil2 str1" d="M10831 15366c-51,-24 -119,-56 -151,-64l-61 -18 0 503c0,386 8,505 34,505 16,0 80,-24 138,-50 405,-185 429,-678 40,-876z"/>
  <path class="fil2 str1" d="M10310 14599c10,0 18,-196 18,-437 0,-331 -8,-436 -32,-436 -71,2 -278,140 -323,216 -60,101 -63,302 -5,413 37,72 275,244 342,244z"/>
  <path class="fil2 str1" d="M10463 9495c2416,-21 4583,1611 5244,3953 376,1338 225,2783 -418,4003 -1379,2603 -4546,3638 -7197,2347 -1399,-680 -2429,-1916 -2841,-3419 -773,-2788 783,-5709 3516,-6606 397,-130 677,-194 1072,-241 145,-19 426,-35 624,-37zm5580 -162l-11086 0 0 11034 11086 0 0 -11034z"/>
  <path class="fil1 str1" d="M8828 13752c-11,0 -508,214 -1106,474 -598,256 -1111,484 -1146,502 -58,32 -61,45 -53,302l8 267 1138 498c627,272 1146,494 1159,494 10,3 18,-140 18,-317l0 -318 -84 -34c-48,-19 -413,-164 -813,-320l-722 -286 802 -307 804 -309 8 -323c3,-177 -3,-323 -13,-323z"/>
  <path class="fil3 str1" d="M9360 14141c-51,474 214,815 770,989l198 64 0 534c0,358 -11,538 -26,538 -61,0 -180,-80 -270,-180 -53,-61 -122,-186 -167,-307 -58,-156 -90,-212 -148,-244 -125,-63 -249,-47 -355,45 -84,77 -92,93 -92,233 0,405 405,818 894,910l164 32 0 344c0,384 26,471 138,484 127,16 153,-66 153,-471l0 -360 159 -31c362,-67 648,-276 802,-585 76,-159 84,-196 84,-426 0,-201 -10,-275 -58,-376 -132,-288 -315,-431 -720,-563l-254 -85 -8 -482c-2,-262 0,-478 8,-478 11,0 43,13 74,29 112,58 209,169 276,314 95,215 150,265 296,265 177,-3 294,-114 294,-283 0,-116 -141,-381 -268,-503 -140,-135 -354,-238 -545,-262l-140 -16 0 -164c0,-185 -48,-280 -143,-280 -34,0 -79,18 -98,42 -18,24 -39,125 -45,223l-10 177 -164 29c-236,40 -408,127 -561,286 -154,156 -212,293 -238,558zm968 21c0,241 -8,437 -18,437 -67,0 -305,-172 -342,-244 -58,-111 -55,-312 5,-413 45,-76 252,-214 323,-216 24,0 32,105 32,436zm352 1140c32,8 100,40 151,64 389,198 365,691 -40,876 -58,26 -122,50 -138,50 -26,0 -34,-119 -34,-505l0 -503 61 18z"/>
  <path class="fil4 str1" d="M12286 11278c2005,1008 2826,3411 1852,5424 -558,1154 -1638,1979 -2910,2228 -350,66 -1157,66 -1495,0 -368,-74 -712,-193 -1059,-365 -1151,-572 -1920,-1588 -2201,-2908 -71,-344 -66,-1162 13,-1524 241,-1117 855,-2016 1792,-2630 582,-378 1251,-595 1984,-643 74,-5 145,-11 159,-13 16,-3 169,8 344,21 563,48 1066,183 1521,410zm3003 6173c643,-1220 794,-2665 418,-4003 -661,-2342 -2828,-3974 -5244,-3953 -198,2 -479,18 -624,37 -395,47 -675,111 -1072,241 -2733,897 -4289,3818 -3516,6606 412,1503 1442,2739 2841,3419 2651,1291 5818,256 7197,-2347z"/>
  <path class="fil4 str1" d="M14429 14744l-1122 -481c-614,-265 -1137,-490 -1161,-500 -40,-14 -45,15 -45,301l0 318 405 158c219,85 584,225 807,313 222,84 394,161 383,172 -13,10 -370,156 -796,325 -429,167 -783,307 -789,315 -8,5 -8,153 -5,325l8 318 1156 -505 1159 -503 0 -278 0 -278z"/>
  <path class="fil4 str1" d="M8846 15972l0 -318 -84 -34c-48,-19 -413,-164 -813,-320l-722 -286 802 -307 804 -309 8 -323c3,-177 -3,-323 -13,-323 -11,0 -508,214 -1106,474 -598,256 -1111,484 -1146,502 -58,32 -61,45 -53,302l8 267 1138 498c627,272 1146,494 1159,494 10,3 18,-140 18,-317z"/>
 </g>
</svg>
