<?xml version="1.0" encoding="utf-8"?>
<svg width="419px" height="417px" viewBox="0 0 419 417" version="1.1" xmlns:xlink="http://www.w3.org/1999/xlink" xmlns="http://www.w3.org/2000/svg">
  <desc>Created with Lunacy</desc>
  <g id="rollinbank2">
    <path d="M0 0L419 0L419 417L0 417L0 0Z" id="Background" fill="none" stroke="none" />
    <g id="Group" transform="matrix(0.1 0 0 -0.1 3.621216 416.4768)">
      <path d="M1403.79 3998.77C1553.79 4047.77 1659.79 4071.77 1808.79 4089.77C1863.79 4096.77 1969.79 4102.77 2044.79 4103.77C2957.79 4111.77 3776.79 3494.77 4026.79 2609.77C4168.79 2103.77 4111.79 1557.77 3868.79 1096.77C3347.79 112.768 2150.79 -278.232 1148.79 209.768C619.788 466.768 230.788 933.768 74.788 1501.77C-217.212 2555.77 370.788 3659.77 1403.79 3998.77ZM2733.79 3429.77C2561.79 3515.77 2371.79 3566.77 2158.79 3584.77C2092.79 3589.77 2034.79 3593.77 2028.79 3592.77C2023.79 3591.77 1996.79 3589.77 1968.79 3587.77C1691.79 3569.77 1438.79 3487.77 1218.79 3344.77C864.788 3112.77 632.788 2772.77 541.788 2350.77C511.788 2213.77 509.788 1904.77 536.788 1774.77C642.788 1275.77 933.788 891.768 1368.79 675.768C1499.79 610.768 1629.79 565.768 1768.79 537.768C1896.79 512.768 2201.79 512.768 2333.79 537.768C2814.79 631.768 3222.79 943.768 3433.79 1379.77C3801.79 2140.77 3491.79 3048.77 2733.79 3429.77Z" id="Shape" fill="#FFFFFF" fill-rule="evenodd" stroke="none" />
      <path d="M402 1698.69C404 1735.69 412 1773.69 419 1782.69C426 1791.69 443 1798.69 456 1798.69C492 1798.69 510 1762.69 510 1692.69L510 1630.69L563 1624.69C635 1615.69 716 1576.69 769 1525.69C817 1479.69 870 1379.69 870 1335.69C870 1271.69 826 1229.69 759 1228.69C704 1228.69 683 1247.69 647 1328.69C622 1383.69 585 1425.69 543 1447.69C531 1453.69 519 1458.69 515 1458.69C512 1458.69 511 1376.69 512 1277.69L515 1095.69L611 1063.69C764 1013.69 833 959.69 883 850.69C901 812.69 905 784.69 905 708.69C905 621.69 902 607.69 873 547.69C815 430.69 707 351.69 570 326.69L510 314.69L510 178.69C510 25.6898 500 -5.31018 452 0.689819C410 5.68982 400 38.6898 400 183.69L400 313.69L338 325.69C153 360.69 0 516.69 0 669.69C0 722.69 3 728.69 35 757.69C75 792.69 122 798.69 169 774.69C191 762.69 203 741.69 225 682.69C242 636.69 268 589.69 288 566.69C322 528.69 367 498.69 390 498.69C396 498.69 400 566.69 400 701.69L400 903.69L325 927.69C115 993.69 15 1122.69 34 1301.69C44 1401.69 66 1453.69 124 1512.69C182 1572.69 247 1605.69 336 1620.69L398 1631.69L402 1698.69ZM575 507.689C728 577.689 737 763.689 590 838.689C571 847.689 545 859.689 533 862.689L510 869.689L510 679.689C510 533.689 513 488.689 523 488.689C529 488.689 553 497.689 575 507.689ZM400 1293.69C400 1202.69 397 1128.69 393 1128.69C368 1128.69 278 1193.69 264 1220.69C242 1262.69 243 1338.69 266 1376.69C283 1405.69 361 1457.69 388 1458.69C397 1458.69 400 1418.69 400 1293.69Z" transform="translate(1593.788 1046.079)" id="Shape" fill="#FFFFFF" fill-rule="evenodd" stroke="none" />
      <path d="M454.235 780.014C228.235 683.014 34.2347 597.014 21.2347 590.014C-0.765259 578.014 -1.76526 573.014 1.23474 476.014L4.23474 375.014L434.235 187.014C671.235 84.0137 867.235 0.0136719 872.235 0.0136719C876.235 -0.986328 879.235 53.0137 879.235 120.014L879.235 240.014L847.235 253.014C829.235 260.014 691.235 315.014 540.235 374.014L267.235 482.014L570.235 598.014L874.235 715.014L877.235 837.014C878.235 904.014 876.235 959.014 872.235 959.014C868.235 959.014 680.235 878.014 454.235 780.014L454.235 780.014Z" transform="translate(554.5532 1535.755)" id="Shape" fill="#FFFFFF" stroke="none" />
      <path d="M0 848L0 728L153 668C236 636 374 583 458 550C542 518 607 489 603 485C598 481 463 426 302 362C140 299 6 246 4 243C1 241 1 185 2 120L5 0L442 191L880 381L880 486L880 591L456 773C224 873 26 958 17 962C2 967 0 956 0 848L0 848Z" transform="translate(2663.788 1528.769)" id="Shape" fill="#FFFFFF" stroke="none" />
    </g>
  </g>
</svg>