<?xml version="1.0" standalone="no"?>
<!DOCTYPE svg PUBLIC "-//W3C//DTD SVG 20010904//EN"
 "http://www.w3.org/TR/2001/REC-SVG-20010904/DTD/svg10.dtd">
<svg version="1.0" xmlns="http://www.w3.org/2000/svg"
 width="1336.000000pt" height="732.000000pt" viewBox="0 0 1336.000000 732.000000"
 preserveAspectRatio="xMidYMid meet">

<g transform="translate(0.000000,732.000000) scale(0.100000,-0.100000)"
fill="#000000" stroke="none">
<path d="M6525 6824 c-211 -21 -276 -29 -378 -50 -542 -109 -1019 -366 -1410
-760 -645 -649 -923 -1569 -747 -2475 194 -1004 952 -1827 1942 -2110 253 -72
478 -102 758 -103 286 0 485 27 745 100 921 259 1640 978 1904 1904 68 241
101 484 101 750 0 442 -90 821 -290 1225 -137 277 -301 505 -521 724 -425 424
-978 695 -1584 777 -107 14 -440 26 -520 18z m385 -698 c475 -54 895 -253
1224 -580 346 -343 544 -748 607 -1240 15 -119 7 -454 -15 -571 -39 -212 -92
-375 -181 -560 -433 -896 -1448 -1355 -2406 -1089 -259 71 -522 205 -733 372
-415 328 -698 833 -766 1367 -17 131 -15 390 5 529 93 672 509 1256 1112 1562
362 183 756 255 1153 210z"/>
<path d="M6672 4828 c-7 -7 -12 -40 -12 -80 l0 -67 -37 -6 c-167 -28 -269
-103 -315 -232 -16 -46 -19 -75 -16 -143 5 -101 33 -165 97 -223 49 -45 84
-63 186 -97 l80 -28 3 -201 c3 -220 3 -218 -56 -187 -56 30 -94 84 -127 184
-12 39 -26 59 -49 73 -88 54 -188 -18 -171 -124 25 -156 165 -286 344 -319
l61 -12 0 -140 c0 -78 4 -146 8 -153 13 -21 58 -26 76 -8 13 14 16 40 16 159
l0 142 61 12 c138 26 250 105 304 216 22 46 30 77 33 140 5 96 -6 142 -50 215
-44 74 -109 118 -238 162 l-105 36 -3 177 c-2 120 1 176 8 176 19 0 64 -27 87
-52 12 -13 33 -48 46 -78 33 -73 56 -93 113 -94 40 -1 50 3 75 32 53 59 33
155 -51 246 -58 63 -101 87 -195 111 l-80 20 -3 65 c-2 35 -8 70 -14 77 -13
16 -60 17 -76 1z m-12 -483 c0 -125 -3 -165 -12 -165 -7 0 -36 13 -64 29 -117
68 -114 211 6 274 29 15 56 27 61 27 5 0 9 -74 9 -165z m193 -463 c72 -38 92
-73 92 -154 0 -59 -3 -70 -31 -105 -31 -38 -103 -83 -136 -83 -17 0 -18 14
-18 191 l0 190 23 -6 c12 -4 44 -19 70 -33z"/>
<path d="M5655 4311 l-430 -187 0 -104 0 -105 430 -187 c237 -103 433 -187
438 -187 4 -1 7 53 7 118 l0 119 -242 96 c-134 52 -269 105 -300 117 -32 12
-58 25 -58 28 0 4 135 58 300 121 l300 115 0 123 c0 67 -3 122 -7 121 -5 0
-201 -85 -438 -188z"/>
<path d="M7330 4373 l0 -118 300 -115 c165 -63 300 -118 300 -121 0 -3 -26
-16 -57 -28 -32 -12 -167 -65 -300 -117 l-243 -96 0 -120 c0 -110 1 -120 18
-114 9 4 205 89 435 189 l418 181 -3 105 -3 105 -424 183 c-234 101 -428 183
-433 183 -4 0 -8 -53 -8 -117z"/>
</g>
</svg>
